<?xml version="1.0" encoding="UTF-8"?><svg id="Layer_1" xmlns="http://www.w3.org/2000/svg" viewBox="0 0 1211.07 1364.02"><defs><style>.cls-1,.cls-2{fill:#f2e7dc;}.cls-2{fill-rule:evenodd;}</style></defs><path class="cls-2" d="M602.91,1263.04l-368.88-196.08c-1.23-.66-2.64-.67-3.89-.06-.94,.46-1.66,1.2-1.66,2.29v94.05c0,1.05,.66,1.76,1.55,2.23,124.22,66.04,248.59,132.07,372.93,198.16,.99,.53,2.12,.53,3.1,0,125.04-66.47,249.98-132.92,374.97-199.37,.89-.48,1.55-1.19,1.55-2.23v-94.05c0-1.09-.72-1.83-1.66-2.29-1.25-.62-2.65-.6-3.89,.05l-371.16,197.3c-.96,.51-2.02,.51-2.98,0h0Z"/><path class="cls-1" d="M776.14,136.08h-130.16c-2.94,0-5.37,3.19-5.37,7.01V1190.75c0,3.82,2.46,5.68,5.37,4.14,48.9-25.95,97.75-51.95,146.64-77.92,48.85-25.94,97.78-51.79,146.68-77.81,1.58-.84,3.21-2.52,4.18-4.25,12.6-22.47,25.09-44.93,37.72-66.88,.81-1.4,1.4-2.97,1.4-4.46v-389.49c0-3.08-2.48-5.01-5.4-4.25-26.68,6.98-53.34,13.96-80.03,20.92-26.66,6.94-53.36,13.78-80.02,20.81-3.12,.82-5.54,4.25-5.54,7.75v25.48c0,3.4,2.43,5.75,5.54,4.88,8.18-2.31,16.35-4.67,24.52-7.01,2.94-.84,5.37,1.17,5.37,4.78v397.13c0,3.61-2.44,7.41-5.37,8.92-20.08,10.28-40.15,20.43-60.15,30.68-2.98,1.53-5.37,.1-5.37-3.61V181.51c0-3.71,2.43-6.42,5.37-6.47,20.04-.37,40.08-.82,60.15-1.28,2.94-.07,5.37,2.44,5.37,6.05v255.31c0,3.5,2.43,5.92,5.4,5.41,20.75-3.52,41.52-7.11,62.28-10.62,20.76-3.5,41.51-7.18,62.31-10.62,2.93-.48,5.37-3.51,5.37-6.69V188.84c0-1.28-.47-2.54-1.37-3.61-12.72-15.28-25.21-30.97-37.73-46.92-1.06-1.35-2.43-2.23-4.17-2.23h-162.99Z"/><path class="cls-1" d="M429.32,1083.85c-19.98-10.25-39.98-20.38-59.95-30.57-3.11-1.59-5.37-5.31-5.37-8.92V142.45c0-3.61-2.43-6.48-5.57-6.48h-124.59c-2.94,0-5.37,2.66-5.37,6.05V1010.39c0,3.08,2.46,6.84,5.37,8.39,48.9,25.95,97.75,51.96,146.64,77.92,48.85,25.94,97.78,51.8,146.68,77.81,1.57,.84,3.2,.8,4.18-.11,12.6-11.82,25.09-23.93,37.72-36.41,.8-.79,1.4-2.12,1.4-3.93v-269.43c0-3.82-2.43-7.96-5.41-9.02-20.75-7.43-41.59-14.86-62.38-22.4-20.79-7.54-41.59-14.99-62.38-22.51-2.97-1.07-5.4,1.06-5.4,4.56v265.18c0,3.61-2.4,5.03-5.57,3.4h0Z"/><path class="cls-2" d="M2.12,0C1.32,0,.75,.33,.33,1.04-.08,1.76-.11,2.45,.25,3.19L25.14,53.78c.37,.75,.94,1.14,1.74,1.18,18.21,1.11,33.45,15.38,36.46,34.15,.17,1.08,1.01,1.83,2.07,1.83H1145.67c1.05,0,1.89-.75,2.07-1.83,3-18.78,18.24-33.07,36.46-34.16,.81-.05,1.38-.43,1.75-1.19l24.88-50.58c.36-.74,.34-1.43-.08-2.15-.41-.71-.99-1.04-1.79-1.04H2.12Z"/><path class="cls-2" d="M86.35,135.97h118.55v35.36c-4.35-1.55-9.09-2.4-14.06-2.4H105.16c-10.35,0-18.81-7.42-18.81-16.48v-16.48h0Zm919.82,0h118.55v16.48c0,9.06-8.46,16.48-18.81,16.48h-85.69c-4.96,0-9.7,.85-14.05,2.4v-35.36h0Z"/></svg>